<mxfile host="app.diagrams.net" agent="Mozilla/5.0 (Windows NT 10.0; Win64; x64) AppleWebKit/537.36 (KHTML, like Gecko) Chrome/132.0.0.0 Safari/537.36 Edg/132.0.0.0" version="26.1.0">
  <diagram name="1 oldal" id="8UCw2fXijMpBnbHfLlZR">
    <mxGraphModel dx="1782" dy="512" grid="1" gridSize="10" guides="1" tooltips="1" connect="1" arrows="1" fold="1" page="1" pageScale="1" pageWidth="827" pageHeight="1169" math="0" shadow="0">
      <root>
        <mxCell id="0" />
        <mxCell id="1" parent="0" />
        <mxCell id="Bdq8twdRBQUD0oRPfIdD-3" value="A" style="rounded=0;whiteSpace=wrap;html=1;" vertex="1" parent="1">
          <mxGeometry x="330" y="440" width="150" height="70" as="geometry" />
        </mxCell>
        <mxCell id="Bdq8twdRBQUD0oRPfIdD-6" value="D" style="ellipse;whiteSpace=wrap;html=1;" vertex="1" parent="1">
          <mxGeometry x="525" y="546.25" width="105" height="55.5" as="geometry" />
        </mxCell>
        <mxCell id="Bdq8twdRBQUD0oRPfIdD-7" value="D1" style="ellipse;whiteSpace=wrap;html=1;" vertex="1" parent="1">
          <mxGeometry x="502.5" y="626.25" width="50" height="25" as="geometry" />
        </mxCell>
        <mxCell id="Bdq8twdRBQUD0oRPfIdD-8" value="D2" style="ellipse;whiteSpace=wrap;html=1;" vertex="1" parent="1">
          <mxGeometry x="552.5" y="626.25" width="50" height="25" as="geometry" />
        </mxCell>
        <mxCell id="Bdq8twdRBQUD0oRPfIdD-9" value="D3" style="ellipse;whiteSpace=wrap;html=1;" vertex="1" parent="1">
          <mxGeometry x="602.5" y="626.25" width="50" height="25" as="geometry" />
        </mxCell>
        <mxCell id="Bdq8twdRBQUD0oRPfIdD-10" value="" style="endArrow=none;html=1;rounded=0;exitX=0.5;exitY=0;exitDx=0;exitDy=0;entryX=0.5;entryY=1;entryDx=0;entryDy=0;" edge="1" parent="1" source="Bdq8twdRBQUD0oRPfIdD-7">
          <mxGeometry width="50" height="50" relative="1" as="geometry">
            <mxPoint x="525" y="626.25" as="sourcePoint" />
            <mxPoint x="577.5" y="601.7500000000002" as="targetPoint" />
          </mxGeometry>
        </mxCell>
        <mxCell id="Bdq8twdRBQUD0oRPfIdD-11" value="" style="endArrow=none;html=1;rounded=0;exitX=0.5;exitY=0;exitDx=0;exitDy=0;entryX=0.5;entryY=1;entryDx=0;entryDy=0;" edge="1" parent="1" source="Bdq8twdRBQUD0oRPfIdD-8">
          <mxGeometry width="50" height="50" relative="1" as="geometry">
            <mxPoint x="537.5" y="636.25" as="sourcePoint" />
            <mxPoint x="577.5" y="601.7500000000002" as="targetPoint" />
          </mxGeometry>
        </mxCell>
        <mxCell id="Bdq8twdRBQUD0oRPfIdD-12" value="" style="endArrow=none;html=1;rounded=0;exitX=0.5;exitY=0;exitDx=0;exitDy=0;entryX=0.5;entryY=1;entryDx=0;entryDy=0;" edge="1" parent="1" source="Bdq8twdRBQUD0oRPfIdD-9">
          <mxGeometry width="50" height="50" relative="1" as="geometry">
            <mxPoint x="587.5" y="636.25" as="sourcePoint" />
            <mxPoint x="577.5" y="601.7500000000002" as="targetPoint" />
          </mxGeometry>
        </mxCell>
        <mxCell id="Bdq8twdRBQUD0oRPfIdD-20" value="" style="endArrow=none;html=1;rounded=0;exitX=1;exitY=0.5;exitDx=0;exitDy=0;entryX=0.5;entryY=1;entryDx=0;entryDy=0;" edge="1" parent="1" source="Bdq8twdRBQUD0oRPfIdD-3" target="Bdq8twdRBQUD0oRPfIdD-22">
          <mxGeometry width="50" height="50" relative="1" as="geometry">
            <mxPoint x="440" y="510" as="sourcePoint" />
            <mxPoint x="676.25" y="407.9999999999999" as="targetPoint" />
          </mxGeometry>
        </mxCell>
        <mxCell id="Bdq8twdRBQUD0oRPfIdD-21" value="" style="endArrow=none;html=1;rounded=0;exitX=0.5;exitY=0;exitDx=0;exitDy=0;entryX=1;entryY=0.5;entryDx=0;entryDy=0;" edge="1" parent="1" source="Bdq8twdRBQUD0oRPfIdD-6" target="Bdq8twdRBQUD0oRPfIdD-3">
          <mxGeometry width="50" height="50" relative="1" as="geometry">
            <mxPoint x="625" y="485" as="sourcePoint" />
            <mxPoint x="680" y="418" as="targetPoint" />
          </mxGeometry>
        </mxCell>
        <mxCell id="Bdq8twdRBQUD0oRPfIdD-22" value="C" style="ellipse;whiteSpace=wrap;html=1;" vertex="1" parent="1">
          <mxGeometry x="525" y="320" width="105" height="55.5" as="geometry" />
        </mxCell>
        <mxCell id="Bdq8twdRBQUD0oRPfIdD-24" value="E" style="rounded=0;whiteSpace=wrap;html=1;" vertex="1" parent="1">
          <mxGeometry x="10" y="440" width="150" height="70" as="geometry" />
        </mxCell>
        <mxCell id="Bdq8twdRBQUD0oRPfIdD-25" value="D" style="ellipse;whiteSpace=wrap;html=1;" vertex="1" parent="1">
          <mxGeometry x="528.75" y="550" width="97.5" height="48" as="geometry" />
        </mxCell>
        <mxCell id="Bdq8twdRBQUD0oRPfIdD-28" value="" style="endArrow=classic;startArrow=classic;html=1;rounded=0;fontFamily=Helvetica;fontSize=12;fontColor=default;entryX=0;entryY=0.5;entryDx=0;entryDy=0;exitX=1;exitY=0.5;exitDx=0;exitDy=0;" edge="1" parent="1" source="Bdq8twdRBQUD0oRPfIdD-24" target="Bdq8twdRBQUD0oRPfIdD-3">
          <mxGeometry width="50" height="50" relative="1" as="geometry">
            <mxPoint x="250" y="585" as="sourcePoint" />
            <mxPoint x="300" y="535" as="targetPoint" />
          </mxGeometry>
        </mxCell>
        <mxCell id="Bdq8twdRBQUD0oRPfIdD-31" value="A-E" style="rhombus;whiteSpace=wrap;html=1;strokeColor=default;align=center;verticalAlign=middle;fontFamily=Helvetica;fontSize=12;fontColor=default;fillColor=default;" vertex="1" parent="1">
          <mxGeometry x="200" y="435" width="80" height="80" as="geometry" />
        </mxCell>
        <mxCell id="Bdq8twdRBQUD0oRPfIdD-34" value="G" style="ellipse;whiteSpace=wrap;html=1;" vertex="1" parent="1">
          <mxGeometry x="-190" y="320" width="105" height="55.5" as="geometry" />
        </mxCell>
        <mxCell id="Bdq8twdRBQUD0oRPfIdD-35" value="H" style="ellipse;whiteSpace=wrap;html=1;" vertex="1" parent="1">
          <mxGeometry x="-190" y="550" width="105" height="55.5" as="geometry" />
        </mxCell>
        <mxCell id="Bdq8twdRBQUD0oRPfIdD-36" value="" style="endArrow=classic;html=1;rounded=0;fontFamily=Helvetica;fontSize=12;fontColor=default;exitX=0;exitY=0.5;exitDx=0;exitDy=0;" edge="1" parent="1" source="Bdq8twdRBQUD0oRPfIdD-31">
          <mxGeometry width="50" height="50" relative="1" as="geometry">
            <mxPoint x="270" y="474.8" as="sourcePoint" />
            <mxPoint x="170" y="474.55" as="targetPoint" />
          </mxGeometry>
        </mxCell>
        <mxCell id="Bdq8twdRBQUD0oRPfIdD-37" value="" style="endArrow=none;html=1;rounded=0;fontFamily=Helvetica;fontSize=12;fontColor=default;exitX=0;exitY=0.5;exitDx=0;exitDy=0;entryX=0.5;entryY=1;entryDx=0;entryDy=0;" edge="1" parent="1" source="Bdq8twdRBQUD0oRPfIdD-24" target="Bdq8twdRBQUD0oRPfIdD-34">
          <mxGeometry width="50" height="50" relative="1" as="geometry">
            <mxPoint x="140" y="510" as="sourcePoint" />
            <mxPoint x="190" y="460" as="targetPoint" />
          </mxGeometry>
        </mxCell>
        <mxCell id="Bdq8twdRBQUD0oRPfIdD-38" value="" style="endArrow=none;html=1;rounded=0;fontFamily=Helvetica;fontSize=12;fontColor=default;exitX=0;exitY=0.5;exitDx=0;exitDy=0;entryX=0.5;entryY=0;entryDx=0;entryDy=0;" edge="1" parent="1" source="Bdq8twdRBQUD0oRPfIdD-24" target="Bdq8twdRBQUD0oRPfIdD-35">
          <mxGeometry width="50" height="50" relative="1" as="geometry">
            <mxPoint x="20" y="485" as="sourcePoint" />
            <mxPoint x="-72" y="385" as="targetPoint" />
          </mxGeometry>
        </mxCell>
        <mxCell id="Bdq8twdRBQUD0oRPfIdD-39" value="D" style="ellipse;whiteSpace=wrap;html=1;" vertex="1" parent="1">
          <mxGeometry x="-70" y="550" width="105" height="55.5" as="geometry" />
        </mxCell>
        <mxCell id="Bdq8twdRBQUD0oRPfIdD-40" value="I" style="ellipse;whiteSpace=wrap;html=1;" vertex="1" parent="1">
          <mxGeometry x="-66.25" y="553.75" width="97.5" height="48" as="geometry" />
        </mxCell>
        <mxCell id="Bdq8twdRBQUD0oRPfIdD-41" value="" style="endArrow=none;html=1;rounded=0;fontFamily=Helvetica;fontSize=12;fontColor=default;entryX=0;entryY=0.5;entryDx=0;entryDy=0;exitX=0.5;exitY=0;exitDx=0;exitDy=0;" edge="1" parent="1" source="Bdq8twdRBQUD0oRPfIdD-39" target="Bdq8twdRBQUD0oRPfIdD-24">
          <mxGeometry width="50" height="50" relative="1" as="geometry">
            <mxPoint x="140" y="510" as="sourcePoint" />
            <mxPoint x="190" y="460" as="targetPoint" />
          </mxGeometry>
        </mxCell>
        <mxCell id="Bdq8twdRBQUD0oRPfIdD-44" value="F_ID" style="ellipse;whiteSpace=wrap;html=1;" vertex="1" parent="1">
          <mxGeometry x="-190" y="447.25" width="105" height="55.5" as="geometry" />
        </mxCell>
        <mxCell id="Bdq8twdRBQUD0oRPfIdD-46" value="B_ID" style="ellipse;whiteSpace=wrap;html=1;" vertex="1" parent="1">
          <mxGeometry x="521.25" y="447.25" width="105" height="55.5" as="geometry" />
        </mxCell>
        <mxCell id="Bdq8twdRBQUD0oRPfIdD-47" value="" style="endArrow=none;html=1;rounded=0;fontFamily=Helvetica;fontSize=12;fontColor=default;exitX=1;exitY=0.5;exitDx=0;exitDy=0;entryX=0;entryY=0.5;entryDx=0;entryDy=0;" edge="1" parent="1" source="Bdq8twdRBQUD0oRPfIdD-44" target="Bdq8twdRBQUD0oRPfIdD-24">
          <mxGeometry width="50" height="50" relative="1" as="geometry">
            <mxPoint x="180" y="520" as="sourcePoint" />
            <mxPoint x="10" y="475" as="targetPoint" />
          </mxGeometry>
        </mxCell>
        <mxCell id="Bdq8twdRBQUD0oRPfIdD-48" value="" style="endArrow=none;html=1;rounded=0;fontFamily=Helvetica;fontSize=12;fontColor=default;exitX=1;exitY=0.5;exitDx=0;exitDy=0;entryX=0;entryY=0.5;entryDx=0;entryDy=0;" edge="1" parent="1" target="Bdq8twdRBQUD0oRPfIdD-46">
          <mxGeometry width="50" height="50" relative="1" as="geometry">
            <mxPoint x="480" y="474.55" as="sourcePoint" />
            <mxPoint x="575" y="474.55" as="targetPoint" />
          </mxGeometry>
        </mxCell>
      </root>
    </mxGraphModel>
  </diagram>
</mxfile>
